<svg width="24" height="24" viewBox="0 0 24 24" fill="none" xmlns="http://www.w3.org/2000/svg">
<g filter="url(#filter0_d_1_15)">
<path d="M23.822 7.431C23.73 7.29808 23.6072 7.18943 23.464 7.11436C23.3209 7.0393 23.1616 7.00006 23 7H9.333L8.179 4.23C8.02769 3.86523 7.77147 3.55359 7.44282 3.33462C7.11418 3.11564 6.72791 2.99918 6.333 3H4V5H6.333L11.077 16.385C11.153 16.5672 11.2812 16.7228 11.4454 16.8322C11.6097 16.9416 11.8026 17 12 17H20C20.417 17 20.79 16.741 20.937 16.352L23.937 8.352C23.9937 8.20063 24.0129 8.03776 23.9928 7.87735C23.9728 7.71695 23.9142 7.56379 23.822 7.431V7.431Z" fill="black"/>
<path d="M12.5 21C13.3284 21 14 20.3284 14 19.5C14 18.6716 13.3284 18 12.5 18C11.6716 18 11 18.6716 11 19.5C11 20.3284 11.6716 21 12.5 21Z" fill="black"/>
<path d="M19.5 21C20.3284 21 21 20.3284 21 19.5C21 18.6716 20.3284 18 19.5 18C18.6716 18 18 18.6716 18 19.5C18 20.3284 18.6716 21 19.5 21Z" fill="black"/>
</g>
<defs>
<filter id="filter0_d_1_15" x="-2" y="0" width="32" height="32" filterUnits="userSpaceOnUse" color-interpolation-filters="sRGB">
<feFlood flood-opacity="0" result="BackgroundImageFix"/>
<feColorMatrix in="SourceAlpha" type="matrix" values="0 0 0 0 0 0 0 0 0 0 0 0 0 0 0 0 0 0 127 0" result="hardAlpha"/>
<feOffset dy="4"/>
<feGaussianBlur stdDeviation="2"/>
<feComposite in2="hardAlpha" operator="out"/>
<feColorMatrix type="matrix" values="0 0 0 0 0 0 0 0 0 0 0 0 0 0 0 0 0 0 0.25 0"/>
<feBlend mode="normal" in2="BackgroundImageFix" result="effect1_dropShadow_1_15"/>
<feBlend mode="normal" in="SourceGraphic" in2="effect1_dropShadow_1_15" result="shape"/>
</filter>
</defs>
</svg>
