<svg width="23" height="24" viewBox="0 0 23 24" fill="none" xmlns="http://www.w3.org/2000/svg">
<path d="M11.9283 1.43565L13.7777 7.78427C13.9642 8.42451 14.551 8.86475 15.2179 8.86475H21.416C21.8871 8.86475 22.0968 9.45662 21.7308 9.75321L16.5352 13.9636C16.066 14.3439 15.8706 14.9686 16.0395 15.5485L17.9788 22.2056C18.1158 22.6761 17.5646 23.0424 17.1839 22.734L12.3927 18.8512C11.8421 18.4051 11.0544 18.4051 10.5039 18.8512L5.71262 22.734C5.33194 23.0424 4.78074 22.6761 4.91778 22.2057L6.85706 15.5485C7.02599 14.9686 6.8306 14.3439 6.36131 13.9636L1.16572 9.75321C0.799741 9.45662 1.00946 8.86475 1.48052 8.86475H7.67869C8.34554 8.86475 8.93232 8.42451 9.11883 7.78427L10.9682 1.43565C11.1081 0.955436 11.7884 0.955438 11.9283 1.43565Z" fill="#FFE600" stroke="black"/>
</svg>
