<svg width="23" height="24" viewBox="0 0 23 24" fill="none" xmlns="http://www.w3.org/2000/svg">
<path d="M10.7612 1.43565C10.9011 0.955435 11.5814 0.955438 11.7213 1.43565L13.5707 7.78427C13.7572 8.42451 14.344 8.86475 15.0108 8.86475H21.209C21.6801 8.86475 21.8898 9.45662 21.5238 9.75321L16.3282 13.9636C15.8589 14.3439 15.6635 14.9686 15.8325 15.5485L17.7717 22.2056C17.9088 22.6761 17.3576 23.0424 16.9769 22.734L12.1856 18.8512C11.6351 18.4051 10.8474 18.4051 10.2968 18.8512L5.50559 22.734C5.1249 23.0424 4.5737 22.6761 4.71075 22.2057L6.65003 15.5485C6.81896 14.9686 6.62357 14.3439 6.15428 13.9636L0.958691 9.75321C0.59271 9.45662 0.802427 8.86475 1.27349 8.86475H7.47166C8.13851 8.86475 8.72529 8.42451 8.9118 7.78427L10.7612 1.43565Z" fill="white" stroke="black"/>
</svg>
